<?xml version="1.0" standalone="no"?>
<!DOCTYPE svg PUBLIC "-//W3C//DTD SVG 20010904//EN"
 "http://www.w3.org/TR/2001/REC-SVG-20010904/DTD/svg10.dtd">
<svg version="1.0" xmlns="http://www.w3.org/2000/svg"
 width="512.000000pt" height="512.000000pt" viewBox="0 0 512.000000 512.000000"
 preserveAspectRatio="xMidYMid meet">
<metadata>
Created by potrace 1.11, written by Peter Selinger 2001-2013
</metadata>
<g transform="translate(0.000000,512.000000) scale(0.100000,-0.100000)"
fill="#000000" stroke="none">
<path d="M580 2560 l0 -2150 1980 0 1980 0 0 2150 0 2150 -1980 0 -1980 0 0
-2150z m3470 0 l0 -1660 -1490 0 -1490 0 0 1660 0 1660 1490 0 1490 0 0 -1660z"/>
<path d="M1560 2560 l0 -1170 248 2 247 3 3 483 2 482 750 0 750 0 0 685 0
685 -245 0 -245 0 0 -480 0 -480 -505 0 -505 0 0 480 0 480 -250 0 -250 0 0
-1170z"/>
<path d="M3070 1640 l0 -250 245 0 245 0 0 250 0 250 -245 0 -245 0 0 -250z"/>
</g>
</svg>
